<?xml version="1.0" encoding="UTF-8" standalone="no"?>
<!DOCTYPE svg PUBLIC "-//W3C//DTD SVG 1.1//EN"
 "http://www.w3.org/Graphics/SVG/1.1/DTD/svg11.dtd">
<!-- Generated by graphviz version 12.2.1 (0)
 -->
<!-- Title: nixos_config Pages: 1 -->
<svg width="986pt" height="883pt"
 viewBox="0.00 0.00 986.00 883.30" xmlns="http://www.w3.org/2000/svg" xmlns:xlink="http://www.w3.org/1999/xlink">
<g id="graph0" class="graph" transform="scale(1 1) rotate(0) translate(4 879.3)">
<title>nixos_config</title>
<polygon fill="white" stroke="none" points="-4,4 -4,-879.3 982,-879.3 982,4 -4,4"/>
<g id="clust1" class="cluster">
<title>cluster_inputs</title>
<polygon fill="lightgrey" stroke="black" points="8,-790.05 8,-867.3 661,-867.3 661,-790.05 8,-790.05"/>
<text text-anchor="middle" x="334.5" y="-850" font-family="Times,serif" font-size="14.00">Flake Inputs</text>
</g>
<g id="clust2" class="cluster">
<title>cluster_hosts</title>
<polygon fill="lightgreen" stroke="black" points="18,-434.8 18,-641.8 390,-641.8 390,-434.8 18,-434.8"/>
<text text-anchor="middle" x="204" y="-624.5" font-family="Times,serif" font-size="14.00">Hosts/</text>
</g>
<g id="clust3" class="cluster">
<title>cluster_shared</title>
<polygon fill="orange" stroke="black" points="398,-227 398,-512.05 680,-512.05 680,-227 398,-227"/>
<text text-anchor="middle" x="539" y="-494.75" font-family="Times,serif" font-size="14.00">Shared/</text>
</g>
<g id="clust4" class="cluster">
<title>cluster_shells</title>
<polygon fill="pink" stroke="black" points="131,-8 131,-174.5 532,-174.5 532,-8 131,-8"/>
<text text-anchor="middle" x="331.5" y="-157.2" font-family="Times,serif" font-size="14.00">Shells/</text>
</g>
<g id="clust5" class="cluster">
<title>cluster_images</title>
<polygon fill="lavender" stroke="black" points="664,-97.25 664,-174.5 970,-174.5 970,-97.25 664,-97.25"/>
<text text-anchor="middle" x="817" y="-157.2" font-family="Times,serif" font-size="14.00">Images/</text>
</g>
<!-- nixpkgs -->
<g id="node1" class="node">
<title>nixpkgs</title>
<polygon fill="lightblue" stroke="black" points="87.75,-834.05 16.25,-834.05 16.25,-798.05 87.75,-798.05 87.75,-834.05"/>
<text text-anchor="middle" x="52" y="-811.38" font-family="Times,serif" font-size="14.00">nixpkgs</text>
</g>
<!-- flake -->
<g id="node6" class="node">
<title>flake</title>
<polygon fill="yellow" stroke="black" points="394.75,-744.8 233.25,-744.8 233.25,-702.3 394.75,-702.3 394.75,-744.8"/>
<text text-anchor="middle" x="314" y="-727.5" font-family="Times,serif" font-size="14.00">flake.nix</text>
<text text-anchor="middle" x="314" y="-710.25" font-family="Times,serif" font-size="14.00">(Root Configuration)</text>
</g>
<!-- nixpkgs&#45;&gt;flake -->
<g id="edge1" class="edge">
<title>nixpkgs&#45;&gt;flake</title>
<path fill="none" stroke="black" d="M82.92,-797.71C87.62,-795.12 92.43,-792.5 97,-790.05 120.26,-777.59 124.99,-771.92 149.75,-762.8 172.64,-754.37 198.02,-747.38 221.86,-741.78"/>
<polygon fill="black" stroke="black" points="222.6,-745.2 231.57,-739.56 221.04,-738.38 222.6,-745.2"/>
<text text-anchor="middle" x="182.38" y="-766.75" font-family="Times,serif" font-size="14.00">imported</text>
</g>
<!-- home_manager -->
<g id="node2" class="node">
<title>home_manager</title>
<polygon fill="lightblue" stroke="black" points="228.25,-834.05 105.75,-834.05 105.75,-798.05 228.25,-798.05 228.25,-834.05"/>
<text text-anchor="middle" x="167" y="-811.38" font-family="Times,serif" font-size="14.00">home&#45;manager</text>
</g>
<!-- home_manager&#45;&gt;flake -->
<g id="edge2" class="edge">
<title>home_manager&#45;&gt;flake</title>
<path fill="none" stroke="black" d="M191.5,-797.79C206.63,-787.33 226.57,-773.9 244.75,-762.8 251.29,-758.81 258.26,-754.74 265.17,-750.82"/>
<polygon fill="black" stroke="black" points="266.86,-753.89 273.88,-745.95 263.44,-747.78 266.86,-753.89"/>
<text text-anchor="middle" x="277.38" y="-766.75" font-family="Times,serif" font-size="14.00">imported</text>
</g>
<!-- plasma_manager -->
<g id="node3" class="node">
<title>plasma_manager</title>
<polygon fill="lightblue" stroke="black" points="381.25,-834.05 246.75,-834.05 246.75,-798.05 381.25,-798.05 381.25,-834.05"/>
<text text-anchor="middle" x="314" y="-811.38" font-family="Times,serif" font-size="14.00">plasma&#45;manager</text>
</g>
<!-- plasma_manager&#45;&gt;flake -->
<g id="edge3" class="edge">
<title>plasma_manager&#45;&gt;flake</title>
<path fill="none" stroke="black" d="M314,-797.6C314,-785.89 314,-770.11 314,-756.21"/>
<polygon fill="black" stroke="black" points="317.5,-756.63 314,-746.63 310.5,-756.63 317.5,-756.63"/>
<text text-anchor="middle" x="346.62" y="-766.75" font-family="Times,serif" font-size="14.00">imported</text>
</g>
<!-- nix_flatpak -->
<g id="node4" class="node">
<title>nix_flatpak</title>
<polygon fill="lightblue" stroke="black" points="489.12,-834.05 398.88,-834.05 398.88,-798.05 489.12,-798.05 489.12,-834.05"/>
<text text-anchor="middle" x="444" y="-811.38" font-family="Times,serif" font-size="14.00">nix&#45;flatpak</text>
</g>
<!-- nix_flatpak&#45;&gt;flake -->
<g id="edge4" class="edge">
<title>nix_flatpak&#45;&gt;flake</title>
<path fill="none" stroke="black" d="M425.83,-797.79C414.1,-787.07 398.23,-773.38 383,-762.8 377.17,-758.75 370.87,-754.77 364.53,-751"/>
<polygon fill="black" stroke="black" points="366.32,-747.99 355.91,-746.02 362.82,-754.06 366.32,-747.99"/>
<text text-anchor="middle" x="436.67" y="-766.75" font-family="Times,serif" font-size="14.00">imported</text>
</g>
<!-- better_soundcloud -->
<g id="node5" class="node">
<title>better_soundcloud</title>
<polygon fill="lightblue" stroke="black" points="652.88,-834.05 507.12,-834.05 507.12,-798.05 652.88,-798.05 652.88,-834.05"/>
<text text-anchor="middle" x="580" y="-811.38" font-family="Times,serif" font-size="14.00">better&#45;soundcloud</text>
</g>
<!-- better_soundcloud&#45;&gt;flake -->
<g id="edge5" class="edge">
<title>better_soundcloud&#45;&gt;flake</title>
<path fill="none" stroke="black" d="M548.95,-797.64C528,-786.47 499.46,-772.31 473,-762.8 451.74,-755.16 428.34,-748.57 406.18,-743.12"/>
<polygon fill="black" stroke="black" points="407.09,-739.74 396.55,-740.81 405.46,-746.55 407.09,-739.74"/>
<text text-anchor="middle" x="544.83" y="-766.75" font-family="Times,serif" font-size="14.00">imported</text>
</g>
<!-- host_default -->
<g id="node7" class="node">
<title>host_default</title>
<polygon fill="lightblue" stroke="black" points="228,-608.55 26,-608.55 26,-572.55 228,-572.55 228,-608.55"/>
<text text-anchor="middle" x="127" y="-585.88" font-family="Times,serif" font-size="14.00">nixos&#45;thinkpad/default.nix</text>
</g>
<!-- flake&#45;&gt;host_default -->
<g id="edge6" class="edge">
<title>flake&#45;&gt;host_default</title>
<path fill="none" stroke="black" d="M232.96,-703.37C220.2,-698.35 207.64,-692.08 196.75,-684.3 172.77,-667.16 153.42,-639.32 141.24,-618.61"/>
<polygon fill="black" stroke="black" points="144.41,-617.11 136.44,-610.13 138.32,-620.55 144.41,-617.11"/>
<text text-anchor="middle" x="253.38" y="-671" font-family="Times,serif" font-size="14.00">discovers via</text>
<text text-anchor="middle" x="253.38" y="-653.75" font-family="Times,serif" font-size="14.00">builtins.readDir</text>
</g>
<!-- other_hosts -->
<g id="node9" class="node">
<title>other_hosts</title>
<polygon fill="lightgrey" stroke="black" points="382.38,-608.55 379.38,-612.55 358.38,-612.55 355.38,-608.55 245.62,-608.55 245.62,-572.55 382.38,-572.55 382.38,-608.55"/>
<text text-anchor="middle" x="314" y="-585.88" font-family="Times,serif" font-size="14.00">[other machines]</text>
</g>
<!-- flake&#45;&gt;other_hosts -->
<g id="edge7" class="edge">
<title>flake&#45;&gt;other_hosts</title>
<path fill="none" stroke="black" stroke-dasharray="5,2" d="M314,-702.08C314,-680.07 314,-644.9 314,-620.15"/>
<polygon fill="black" stroke="black" points="317.5,-620.46 314,-610.46 310.5,-620.46 317.5,-620.46"/>
</g>
<!-- nixos_configurations -->
<g id="node18" class="node">
<title>nixos_configurations</title>
<ellipse fill="cyan" stroke="black" cx="813" cy="-460.8" rx="124.8" ry="30.05"/>
<text text-anchor="middle" x="813" y="-464.75" font-family="Times,serif" font-size="14.00">nixosConfigurations</text>
<text text-anchor="middle" x="813" y="-447.5" font-family="Times,serif" font-size="14.00">(System Build Output)</text>
</g>
<!-- flake&#45;&gt;nixos_configurations -->
<g id="edge18" class="edge">
<title>flake&#45;&gt;nixos_configurations</title>
<path fill="none" stroke="black" d="M378.98,-701.87C459.51,-674.67 599.28,-622.3 707,-554.55 732.24,-538.68 757.49,-516.88 777.01,-498.4"/>
<polygon fill="black" stroke="black" points="779.41,-500.95 784.19,-491.5 774.56,-495.91 779.41,-500.95"/>
</g>
<!-- hardware_config -->
<g id="node8" class="node">
<title>hardware_config</title>
<polygon fill="lightblue" stroke="black" points="235.75,-478.8 26.25,-478.8 26.25,-442.8 235.75,-442.8 235.75,-478.8"/>
<text text-anchor="middle" x="131" y="-456.13" font-family="Times,serif" font-size="14.00">hardware&#45;configuration.nix</text>
</g>
<!-- host_default&#45;&gt;hardware_config -->
<g id="edge8" class="edge">
<title>host_default&#45;&gt;hardware_config</title>
<path fill="none" stroke="black" d="M127.55,-572.06C128.21,-551.03 129.32,-515.47 130.1,-490.42"/>
<polygon fill="black" stroke="black" points="133.6,-490.7 130.41,-480.6 126.6,-490.48 133.6,-490.7"/>
<text text-anchor="middle" x="156.87" y="-532.63" font-family="Times,serif" font-size="14.00">imports</text>
</g>
<!-- shared_config -->
<g id="node10" class="node">
<title>shared_config</title>
<polygon fill="lightblue" stroke="black" points="574.38,-478.8 437.62,-478.8 437.62,-442.8 574.38,-442.8 574.38,-478.8"/>
<text text-anchor="middle" x="506" y="-456.13" font-family="Times,serif" font-size="14.00">configuration.nix</text>
</g>
<!-- host_default&#45;&gt;shared_config -->
<g id="edge9" class="edge">
<title>host_default&#45;&gt;shared_config</title>
<path fill="none" stroke="black" d="M197.01,-572.09C251.37,-557.85 328.31,-536.19 394,-512.05 416.13,-503.92 440.05,-493.43 460.07,-484.15"/>
<polygon fill="black" stroke="black" points="461.52,-487.33 469.09,-479.92 458.55,-480.99 461.52,-487.33"/>
<text text-anchor="middle" x="393.34" y="-532.63" font-family="Times,serif" font-size="14.00">imports</text>
</g>
<!-- host_default&#45;&gt;nixos_configurations -->
<g id="edge19" class="edge">
<title>host_default&#45;&gt;nixos_configurations</title>
<path fill="none" stroke="black" stroke-dasharray="5,2" d="M228.26,-573.68C231.21,-573.29 234.12,-572.91 237,-572.55 320.29,-562.14 342.32,-569.04 425,-554.55 485.68,-543.92 498.41,-529.73 559.25,-520.05 614.12,-511.32 629.75,-524.05 684,-512.05 704.69,-507.47 726.43,-500.09 746.05,-492.37"/>
<polygon fill="black" stroke="black" points="747.34,-495.63 755.3,-488.63 744.72,-489.13 747.34,-495.63"/>
<text text-anchor="middle" x="606.12" y="-541.25" font-family="Times,serif" font-size="14.00">processed by</text>
<text text-anchor="middle" x="606.12" y="-524" font-family="Times,serif" font-size="14.00">mkHost</text>
</g>
<!-- other_hosts&#45;&gt;nixos_configurations -->
<g id="edge20" class="edge">
<title>other_hosts&#45;&gt;nixos_configurations</title>
<path fill="none" stroke="black" stroke-dasharray="5,2" d="M382.55,-586.06C467.67,-581.13 607.69,-570.84 657,-554.55 696.82,-541.4 737.4,-516.85 767.19,-496.31"/>
<polygon fill="black" stroke="black" points="769.05,-499.28 775.23,-490.68 765.03,-493.55 769.05,-499.28"/>
</g>
<!-- users_nix -->
<g id="node11" class="node">
<title>users_nix</title>
<polygon fill="lightblue" stroke="black" points="592.38,-377.5 467.62,-377.5 467.62,-341.5 592.38,-341.5 592.38,-377.5"/>
<text text-anchor="middle" x="530" y="-354.82" font-family="Times,serif" font-size="14.00">users/users.nix</text>
</g>
<!-- shared_config&#45;&gt;users_nix -->
<g id="edge10" class="edge">
<title>shared_config&#45;&gt;users_nix</title>
<path fill="none" stroke="black" d="M510.18,-442.5C513.74,-427.79 518.92,-406.35 523.09,-389.08"/>
<polygon fill="black" stroke="black" points="526.48,-389.95 525.43,-379.4 519.68,-388.3 526.48,-389.95"/>
<text text-anchor="middle" x="548.61" y="-399.45" font-family="Times,serif" font-size="14.00">imports</text>
</g>
<!-- home_manager_config -->
<g id="node12" class="node">
<title>home_manager_config</title>
<polygon fill="lightblue" stroke="black" points="671.88,-271 406.12,-271 406.12,-235 671.88,-235 671.88,-271"/>
<text text-anchor="middle" x="539" y="-248.32" font-family="Times,serif" font-size="14.00">users/hadichokr&#45;home&#45;manager.nix</text>
</g>
<!-- users_nix&#45;&gt;home_manager_config -->
<g id="edge11" class="edge">
<title>users_nix&#45;&gt;home_manager_config</title>
<path fill="none" stroke="black" d="M531.49,-341.24C532.85,-325.36 534.91,-301.49 536.53,-282.74"/>
<polygon fill="black" stroke="black" points="540.01,-283.05 537.38,-272.79 533.04,-282.45 540.01,-283.05"/>
<text text-anchor="middle" x="589.08" y="-310.2" font-family="Times,serif" font-size="14.00">imports via</text>
<text text-anchor="middle" x="589.08" y="-292.95" font-family="Times,serif" font-size="14.00">home&#45;manager</text>
</g>
<!-- devshell_script -->
<g id="node13" class="node">
<title>devshell_script</title>
<polygon fill="lightblue" stroke="black" points="374.12,-141.25 277.88,-141.25 277.88,-105.25 374.12,-105.25 374.12,-141.25"/>
<text text-anchor="middle" x="326" y="-118.58" font-family="Times,serif" font-size="14.00">devshell.sh</text>
</g>
<!-- home_manager_config&#45;&gt;devshell_script -->
<g id="edge12" class="edge">
<title>home_manager_config&#45;&gt;devshell_script</title>
<path fill="none" stroke="black" d="M482.94,-234.66C469.81,-229.7 456.12,-223.77 444,-217 410.06,-198.04 375.6,-169.67 352.76,-149.31"/>
<polygon fill="black" stroke="black" points="355.19,-146.79 345.43,-142.68 350.49,-151.98 355.19,-146.79"/>
<text text-anchor="middle" x="484.5" y="-203.7" font-family="Times,serif" font-size="14.00">sources in</text>
<text text-anchor="middle" x="484.5" y="-186.45" font-family="Times,serif" font-size="14.00">initContent</text>
</g>
<!-- kontainer_nix -->
<g id="node14" class="node">
<title>kontainer_nix</title>
<polygon fill="lightblue" stroke="black" points="497.5,-52 388.5,-52 388.5,-16 497.5,-16 497.5,-52"/>
<text text-anchor="middle" x="443" y="-29.32" font-family="Times,serif" font-size="14.00">kontainer.nix</text>
</g>
<!-- home_manager_config&#45;&gt;kontainer_nix -->
<g id="edge14" class="edge">
<title>home_manager_config&#45;&gt;kontainer_nix</title>
<path fill="none" stroke="black" d="M539.77,-234.59C541.22,-194.29 542.67,-96.01 524,-70 519.56,-63.81 513.79,-58.71 507.37,-54.5"/>
<polygon fill="black" stroke="black" points="509.33,-51.59 498.9,-49.7 505.88,-57.68 509.33,-51.59"/>
<text text-anchor="middle" x="597.75" y="-127.2" font-family="Times,serif" font-size="14.00">references in</text>
<text text-anchor="middle" x="597.75" y="-109.95" font-family="Times,serif" font-size="14.00">distrobox config</text>
</g>
<!-- wallpaper -->
<g id="node17" class="node">
<title>wallpaper</title>
<polygon fill="lightblue" stroke="black" points="962.25,-141.25 671.75,-141.25 671.75,-105.25 962.25,-105.25 962.25,-141.25"/>
<text text-anchor="middle" x="817" y="-118.58" font-family="Times,serif" font-size="14.00">nixos&#45;wallpaper&#45;catppuccin&#45;mocha.svg</text>
</g>
<!-- home_manager_config&#45;&gt;wallpaper -->
<g id="edge13" class="edge">
<title>home_manager_config&#45;&gt;wallpaper</title>
<path fill="none" stroke="black" d="M577.07,-234.5C626.84,-211.63 714.07,-171.55 768.51,-146.53"/>
<polygon fill="black" stroke="black" points="769.94,-149.73 777.57,-142.37 767.02,-143.37 769.94,-149.73"/>
<text text-anchor="middle" x="751.96" y="-203.7" font-family="Times,serif" font-size="14.00">sets as</text>
<text text-anchor="middle" x="751.96" y="-186.45" font-family="Times,serif" font-size="14.00">desktop wallpaper</text>
</g>
<!-- devshell_script&#45;&gt;kontainer_nix -->
<g id="edge15" class="edge">
<title>devshell_script&#45;&gt;kontainer_nix</title>
<path fill="none" stroke="black" d="M366.49,-104.76C376.24,-99.74 386.33,-93.82 395,-87.25 404.87,-79.77 414.38,-70.11 422.3,-61.14"/>
<polygon fill="black" stroke="black" points="424.86,-63.54 428.67,-53.65 419.53,-59 424.86,-63.54"/>
<text text-anchor="middle" x="467.03" y="-73.95" font-family="Times,serif" font-size="14.00">manages entry</text>
</g>
<!-- rust_nix -->
<g id="node15" class="node">
<title>rust_nix</title>
<polygon fill="lightblue" stroke="black" points="210.75,-52 139.25,-52 139.25,-16 210.75,-16 210.75,-52"/>
<text text-anchor="middle" x="175" y="-29.32" font-family="Times,serif" font-size="14.00">rust.nix</text>
</g>
<!-- devshell_script&#45;&gt;rust_nix -->
<g id="edge16" class="edge">
<title>devshell_script&#45;&gt;rust_nix</title>
<path fill="none" stroke="black" d="M277.7,-117.66C238.05,-112.77 186.4,-103.45 173.5,-87.25 168.27,-80.69 167.02,-72.05 167.55,-63.7"/>
<polygon fill="black" stroke="black" points="171.01,-64.22 169.03,-53.81 164.08,-63.18 171.01,-64.22"/>
<text text-anchor="middle" x="226.75" y="-73.95" font-family="Times,serif" font-size="14.00">manages entry</text>
</g>
<!-- shadow_nix -->
<g id="node16" class="node">
<title>shadow_nix</title>
<polygon fill="lightblue" stroke="black" points="334.38,-52 239.62,-52 239.62,-16 334.38,-16 334.38,-52"/>
<text text-anchor="middle" x="287" y="-29.32" font-family="Times,serif" font-size="14.00">shadow.nix</text>
</g>
<!-- devshell_script&#45;&gt;shadow_nix -->
<g id="edge17" class="edge">
<title>devshell_script&#45;&gt;shadow_nix</title>
<path fill="none" stroke="black" d="M301.74,-104.95C296.43,-99.89 291.51,-93.91 288.5,-87.25 285.23,-80 284.02,-71.59 283.84,-63.66"/>
<polygon fill="black" stroke="black" points="287.34,-63.85 284.19,-53.73 280.34,-63.6 287.34,-63.85"/>
<text text-anchor="middle" x="341.75" y="-73.95" font-family="Times,serif" font-size="14.00">manages entry</text>
</g>
</g>
</svg>
